<?xml version="1.0" encoding="iso-8859-1"?>
<!-- Generator: Adobe Illustrator 19.2.1, SVG Export Plug-In . SVG Version: 6.00 Build 0)  -->
<svg version="1.1" xmlns="http://www.w3.org/2000/svg" xmlns:xlink="http://www.w3.org/1999/xlink" x="0px" y="0px"
	 viewBox="0 0 193.319 48.607" style="enable-background:new 0 0 193.319 48.607;" xml:space="preserve">
<pattern  x="-113.901" y="-4175.046" width="18" height="18" patternUnits="userSpaceOnUse" id="New_Pattern" viewBox="1.441 -19.44 18 18" style="overflow:visible;">
	<g>
		<rect x="1.441" y="-19.44" style="fill:none;" width="18" height="18"/>
		<polygon style="fill:#D83C92;" points="13.5,-2.113 16.383,-2.88 15.605,0 		"/>
		<polygon style="fill:#D83C92;" points="4.5,-2.113 7.383,-2.88 6.605,0 		"/>
		<polygon style="fill:#D83C92;" points="18,-11.113 20.883,-11.88 20.105,-9 		"/>
		<polygon style="fill:#D83C92;" points="9,-11.113 11.883,-11.88 11.105,-9 		"/>
		<polygon style="fill:#D83C92;" points="0,-11.113 2.883,-11.88 2.105,-9 		"/>
		<polygon style="fill:#D83C92;" points="13.5,-20.113 16.383,-20.88 15.605,-18 		"/>
		<polygon style="fill:#D83C92;" points="4.5,-20.113 7.383,-20.88 6.605,-18 		"/>
	</g>
</pattern>
<g id="motion5">
	<pattern  id="SVGID_1_" xlink:href="#New_Pattern" patternTransform="matrix(0.8 0 0 0.8 -1673.6296 609.9868)">
	</pattern>
	<polygon style="fill:url(#SVGID_1_);" points="191.164,48.607 -205.941,48.607 -201.251,0 193.319,0 	"/>
</g>
<g id="Layer_1">
</g>
</svg>
